Coordinates
version=1
nRows=8
nColumns=36
inDegrees=yes

Units are S.I. units (second, meters, Newtons, ...)
If the header above contains a line with 'inDegrees', this indicates whether rotational values are in degrees (yes) or radians (no).

endheader
time	pelvis_tilt	pelvis_list	pelvis_rotation	pelvis_tx	pelvis_ty	pelvis_tz	hip_flexion_r	hip_adduction_r	hip_rotation_r	knee_angle_r	knee_angle_r_beta	ankle_angle_r	subtalar_angle_r	mtp_angle_r	hip_flexion_l	hip_adduction_l	hip_rotation_l	knee_angle_l	knee_angle_l_beta	ankle_angle_l	subtalar_angle_l	mtp_angle_l	lumbar_extension	lumbar_bending	lumbar_rotation	arm_flex_r	arm_add_r	arm_rot_r	elbow_flex_r	pro_sup_r	arm_flex_l	arm_add_l	arm_rot_l	elbow_flex_l	pro_sup_l
      0.97000000	      0.13783814	      2.64763846	      7.52300298	      1.05427917	      1.04215932	     -0.21907902	     24.68283968	     -4.48301217	     -9.00613799	     15.55387373	      0.27146631	     -3.02058134	     -7.20195468	     -7.16425086	     -7.36635075	      7.48472678	     -2.20831332	      0.85939424	      0.01499926	      8.89057004	     10.63006405	     -7.16425086	    -12.79134299	     -1.86402244	     -7.38996505	    -13.76975364	     -1.52561077	    -21.37539047	     33.40683547	    107.28695730	      0.62060300	     -8.93950762	    -14.98731309	     59.50592578	     98.74237494
      0.98000000	      0.15067702	      2.99226191	      7.74403796	      1.06826054	      1.04014090	     -0.21921455	     24.28237958	     -4.70259514	     -9.93420235	     12.16282485	      0.21228134	     -2.88021585	     -4.30304731	     -7.17446801	     -8.31183194	      7.68504396	     -2.06215760	      0.90179162	      0.01573923	      9.63295451	     11.19478239	     -7.17446801	    -12.76846036	     -2.16263575	     -7.61248515	    -14.74024692	     -1.17593971	    -22.06157805	     33.54423230	    107.49846378	      1.40399120	     -9.49853970	    -14.95210996	     61.30077395	     98.71786431
      0.99000000	     -0.25040903	      3.32414631	      7.87002906	      1.08213837	      1.03750117	     -0.21907311	     24.35771926	     -4.83253166	    -10.21214019	      9.05228679	      0.15799221	     -3.16785579	     -2.02172843	     -7.17794925	     -8.77913044	      7.93950227	     -1.81974994	      0.99682266	      0.01739784	     10.22519304	     11.30470544	     -7.17794925	    -12.25389775	     -2.55095558	     -7.67073863	    -15.70461958	     -0.93288962	    -22.28580620	     33.45913028	    107.48836099	      2.18935021	    -10.03946461	    -14.83325671	     62.84170654	     98.79238708
      1.00000000	     -0.01957720	      3.52530282	      8.02800639	      1.09656472	      1.03564407	     -0.21903993	     23.71329618	     -4.83753192	    -11.39873082	      6.30798768	      0.11009515	     -2.83726511	      1.59387643	     -7.18752353	     -9.94952119	      7.93353587	     -1.89282698	      1.06184992	      0.01853278	     11.05768437	     11.77822487	     -7.18752353	    -12.41762599	     -2.65465667	     -7.94280468	    -16.53079387	     -0.65341887	    -22.94705689	     33.65147035	    107.72650175	      2.73517380	    -10.63023905	    -14.73359333	     64.66386736	     98.82351503
      1.01000000	     -0.08500220	      3.72871473	      8.12070401	      1.11079543	      1.03344622	     -0.21880260	     23.46021641	     -4.79748946	    -12.04239852	      4.03543502	      0.07043163	     -2.55058688	      4.49850397	     -7.19668649	    -10.73435658	      7.97725244	     -1.91141819	      1.21163750	      0.02114706	     11.69442953	     12.06840766	     -7.19668649	    -12.25773321	     -2.85181630	     -8.07378259	    -17.29969485	     -0.42333463	    -23.38386296	     33.63610954	    107.93327385	      3.31631904	    -11.16166155	    -14.64418207	     66.28610705	     98.85524389
      1.02000000	     -0.38727892	      3.89959703	      8.15292999	      1.12494757	      1.03100848	     -0.21842348	     23.48774930	     -4.69187531	    -11.96381687	      2.21534012	      0.03866498	     -2.38215911	      6.34146852	     -7.19966672	    -11.20875913	      8.02903973	     -1.79798608	      1.44288440	      0.02518308	     12.14126749	     12.08796655	     -7.19966672	    -11.81361575	     -3.07111546	     -8.06017655	    -18.02622677	     -0.27228182	    -23.54613011	     33.45346827	    107.93531166	      3.92943578	    -11.62381343	    -14.54426656	     67.68492641	     98.95152273
      1.03000000	     -0.22188480	      3.99948896	      8.22318201	      1.13944393	      1.02933711	     -0.21824826	     23.20629713	     -4.60193939	    -13.23867657	      1.30622036	      0.02279785	     -1.29477357	      9.72037490	     -7.20873518	    -12.17359119	      7.91938833	     -1.92026804	      1.67175526	      0.02917763	     12.59142068	     12.37303672	     -7.20873518	    -11.89204817	     -3.08809250	     -8.35445947	    -18.52822967	     -0.15477434	    -23.95898329	     33.39348312	    108.10467381	      4.20696353	    -12.11903601	    -14.60187426	     69.37149701	     99.02004712
      1.04000000	     -0.31284763	      4.06423445	      8.23192782	      1.15387015	      1.02748608	     -0.21789827	     23.23230609	     -4.45518932	    -13.82687164	      0.87728872	      0.01531158	     -0.50666473	     11.87136407	     -7.21828554	    -12.75204746	      7.81455939	     -2.02273165	      2.07819763	      0.03627139	     12.93682307	     12.48014893	     -7.21828554	    -11.66937514	     -3.14419691	     -8.47329265	    -18.98465485	     -0.08440416	    -24.17502564	     33.17993236	    108.25670098	      4.53285922	    -12.51681778	    -14.67586316	     70.82177015	     99.07562404
